<svg id="Layer_1" data-name="Layer 1" xmlns="http://www.w3.org/2000/svg" viewBox="0 0 195 210">
  <defs>
    <style>
      .cls-1 {
        fill: #a61f1f;
      }

      .cls-2 {
        fill: #d1921c;
      }

      .cls-3 {
        fill: #d99a25;
      }
    </style>
  </defs>
  <path class="cls-1" d="M11.5,36.51c-1,3,10,28,12,30s8-6,11-7-33,75-31,76,22,36,25,37,9-6,9-6,38,27,53,29c1,4,7,15,9,15s12-17,9-16c17-3,52-29,51-31,2,1,4,4,9,5s22-37,23-38-38-76-37-74,7,5,11,7,13-30,12-32-22-27-28-28-52,28-54,28c-3,0-49-28-54-26C37.79,7,12.5,33.51,11.5,36.51Z"/>
  <path class="cls-2" d="M17.94,39.55c-.93,2.8,5.7,19.1,7.56,21s11.14-7.71,14-7c4,1-30.87,77.26-29,78.19s18.22,31.88,21,32.81,8-5,8-5,38,26.18,52,28c.93,3.72,6.52,14,8.38,14s10.92-17.11,9.65-16c14.27-3.11,48.93-28.14,48-30,1.86.93,5.35,4.07,10,5s16.07-29.07,17-30-37-76-36-80c.54-2.17,12.28,6.14,16,8,2,2,8.88-21.75,7.95-23.61S154.08,10.44,148.5,9.51s-50.14,28-52,28c-2.79,0-48.35-27.86-53-26C40,12.89,18.87,36.76,17.94,39.55Z"/>
  <path class="cls-1" d="M19.5,39.51c-1.32,2.63,5.14,16.14,7,18s13-9,16-7c3.43,2.29-30.86,79.07-29,80s16.21,29.07,19,30,7-4,7-4,39,26.14,53,28c.93,3.72,5.14,14,7,14s9-15,9-15c15.82-2.79,49.93-29.14,49-31,1.86.93,4.35,4.07,9,5s16.1-28.27,15-29c-3-2-37.84-77.31-36-81,1-2,14.28,5.14,18,7,2,2,7.93-17.14,7-19s-16.42-23.07-22-24-50.14,28-52,28c-2.79,0-48.35-27.86-53-26C40,14.89,20.5,37.51,19.5,39.51Z"/>
  <g>
    <path class="cls-3" d="M82.09,75.33Z"/>
    <path class="cls-3" d="M124.74,93.88c-2.78-2.79-9.27-10.2-22.25-4.64s-13,13.91-12.06,24.11,5.91,11.81,6.5,13c.92,1.86,1.85,4.64.92,5.56H90.43c-4.63,1.86,5.57,8.35,8.35,8.35s6.49-2.78,6.49-2.78c1.48-.74,2.37-4.44,2.67-5.9h0c1-3.37-1.76-5.23.09-7.08,16.69-13.91-.92-20.4-2.78-17.62-.93,1.85,0,3.71-1.85,5.56-2.87,1.43-3-2.65-3.29-4.59,0-.14.07-.28.1-.43a10.43,10.43,0,0,1,4.11-6.11c1.86-1.85,8.35-3.71,11.13,0s2.78,13.91,2.78,20.4c-.92,10.2.93,14.84-5.56,19.48-13,9.27-21.33,1.85-21.33,1.85-38-27.82-13.91-65.84-9.27-67.69h0s0-.06,0-.08c.21-.75,11.16-5.48,11.16-5.48S109.91,93,133.09,78.11c5.56-3.71,4.64-10.2,3.71-15.76-3.71-9.28-11.13-3.71-11.13-1.86-.93,3.71,3.71,6.49,2.78,8.35S107.13,54.93,105.27,54s-3.71,0-5.56,0,1.85-3.71,1.85-4.63-2.78-1.86-3.71-1.86S76.07,61,70.46,66.11a7.51,7.51,0,0,0-1.2,1.28C62.8,73.91,47.12,93.78,52.42,118c7.5,28.5,28.94,35.77,36.87,37.51h0c.29.25.53.28.75.15l.52.1c3.38,1.31,11.71,3.75,23.06-.66,16.69-6.49,21.32-32.46,21.32-32.46S137.73,105,124.74,93.88Z"/>
  </g>
</svg>
