<svg id="Layer_1" data-name="Layer 1" xmlns="http://www.w3.org/2000/svg" viewBox="0 0 18 25">
  <defs>
    <style>
      .cls-1 {
        fill: #f7931e;
      }

      .cls-2 {
        fill: #b54f26;
      }

      .cls-3, .cls-4 {
        fill: #f2c5bb;
      }

      .cls-3 {
        opacity: 0.58;
      }

      .cls-4 {
        opacity: 0.57;
      }
    </style>
  </defs>
  <path class="cls-1" d="M9.2.5C9.08,3.85-4,15,3.77,21.91c6.79,6,11.31-.36,11.31-.36C22.21,14.85,9,3.25,9.2.5Z"/>
  <path class="cls-2" d="M9.2.5A5.77,5.77,0,0,1,8.14,2.88,4.3,4.3,0,0,0,9.2.86C9,3.6,17,17.77,9.93,24.49a7.56,7.56,0,0,0,5.15-2.94C22.21,14.85,9,3.25,9.2.5Z"/>
  <path class="cls-3" d="M6.48,8.23c-.11.36-5.2,5-1.58,10.28.45.48,1.92-.12,1.58-.59C4.22,15.29,6.59,7.87,6.48,8.23Z"/>
  <path class="cls-4" d="M5.83,19.3l.73-.63a.21.21,0,0,1,.32.07l.35.68a.22.22,0,0,1-.07.3L6.72,20a.39.39,0,0,1-.48,0l-.4-.32A.24.24,0,0,1,5.83,19.3Z"/>
</svg>
