<svg id="Layer_1" data-name="Layer 1" xmlns="http://www.w3.org/2000/svg" viewBox="0 0 509 559">
  <defs>
    <style>
      .cls-1 {
        fill: #36100c;
      }
    </style>
  </defs>
  <path class="cls-1" d="M253.5,21.5c-6-5-49,33-31,132-16,12-75,49-65,98,1.72,10.33,1,56-8,74-1.25,2.51,36,19,97,15,3,1,.34,4.79-1,5-71,11-105.9-13.49-110-14-1.46-.18,9.77-36.45,8-37-28-10-131,15-123,46,61,104,467,55,461,0-7-36-110-45-129-47-10.44,2.95-20,13-21,10,19-35-18.07-84.53-16-117,8-41-27-101-46-118S250.5,53.5,253.5,21.5Z"/>
  <g>
    <path class="cls-1" d="M98.78,427.58c-3,6.08-5,10.18-5.82,12.32-1.8,4.5-2.71,6.75-4.54,11.25,10.38,2.76,15.6,4,26.06,6.32L115,456c4.32-11.11,8.41-23.58,17.51-31.4,7.1-6.1,14.52-8.53,21.66-7.35a21,21,0,0,1,7.24,2.55c-3,2.1-4.46,3.14-7.48,5.21a13.65,13.65,0,0,0-6.93-3.69,10.69,10.69,0,0,0-11.7,5.23c-5.75,9.22-8.84,20.67-12.45,31.12L121,463.3a164.41,164.41,0,0,0-5,17c-.5,2.41.43,3.87,2.81,4.36a15.34,15.34,0,0,0,6.93-.67,5.34,5.34,0,0,1,0,1.11c-.16.85-1.17,1.45-3,1.79l-3.07.59c-6.24,1.12-9.38,1.64-15.7,2.61,1.17-5.23,4-13.94,8.27-26.16l.53-1.49c-10.53-2.33-15.78-3.61-26.23-6.4-.59,1.48-.89,2.22-1.49,3.7-.75,1.8-1.12,2.7-1.87,4.49q-2.4,5.75-5.26,7.81c-1.91,1.37-5.12,2.33-9.66,2.83,4.49,1.57,6.74,2.33,11.25,3.81-2.85,1.32-4.28,2-7.17,3.27-8.35-2.73-12.51-4.16-20.78-7.17,3.13-1.28,4.68-1.92,7.77-3.23,2,.83,3.06,1.25,5.11,2.07a12,12,0,0,0,6.78-3.8c1.57-1.85,3.53-5.58,5.85-11.19q6-14.12,11.72-28.32l-1.4-.38c-12.44-3.45-19.78-1.69-22.16,5.92a14.42,14.42,0,0,0-.09,7.84c-3.79,1.67-5.71,2.48-9.56,4.09a21.1,21.1,0,0,1,1-6.75,21.85,21.85,0,0,1,14.12-14.4c7-2.56,15.17-2.5,24.61,0C96.67,427,97.38,427.22,98.78,427.58Z"/>
    <path class="cls-1" d="M141.75,497.47c-7.47-1.23-10.42-6.18-8.87-14.68,1.24-6.84,5.29-12.89,11.89-18.32s12.72-7.75,18.6-6.94c7.09,1,10.12,5.67,9.09,14.24-.84,6.93-4.45,13.27-11.08,18.87S148.12,498.51,141.75,497.47Zm6.77-3.86c3.79.59,7.24-.79,10.29-4.11s4.9-7.74,5.63-13.23c1.19-9-1.26-13.82-7.33-14.72-3.57-.53-6.84.84-9.89,4.12a24.72,24.72,0,0,0-6,13C139.73,487.61,142.15,492.63,148.52,493.61Z"/>
    <path class="cls-1" d="M218.1,464.31l-.33.94-.63,2.28c-.49,1.66-.76,2.57-.8,2.74-1.08,6.32-1.62,9.48-2.74,15.79q-.69,4-1.78,14c-.92,8.33-2.2,14.48-3.83,18.41a24.81,24.81,0,0,1-8.19,10.28c-6.86,5.83-18.63,9.61-27.54,8.48-4.49-.57-8.23-2.23-10.91-5.14a11.82,11.82,0,0,1-3.24-10c1.44-10.21,11.75-15.87,19.46-20.87-2.16-1.83-3-4.76-2.55-8.77,1-8.7,5.08-15.88,12-21.7s14.51-8.43,23-7.92A23.26,23.26,0,0,1,218.1,464.31Zm-11.64,22.23c-6,7.56-15.46,16.6-25.64,15.85-.29,0-.83-.11-1.59-.25-8.48,5.92-13.21,11.38-13.86,16.64a11.09,11.09,0,0,0,3.51,9.57,17.66,17.66,0,0,0,11.1,4.88c7.07.7,13.43-1.54,16.86-6.3,5.24-7.28,6.55-18.4,7.79-27.89C205.36,493.46,206,489.27,206.46,486.54Zm3.23-17.24a15.77,15.77,0,0,0-8.42-2.79c-4.32-.33-8.16,1.84-11.63,6.52s-5.63,10.62-6.35,17.86q-.57,5.63,3.26,6c2.91.28,6.66-1.37,11.14-5,6.2-5,9.84-11,11.09-17.87C209.15,472.14,209.33,471.19,209.69,469.3Z"/>
    <path class="cls-1" d="M233.5,505.75a111.31,111.31,0,0,0-1.21-19.18c-.56-3.69-.84-5.54-1.38-9.23q-1.14-7.89-4.34-8.21c-2.4-.25-4.16,1.85-5.3,6.33a1.73,1.73,0,0,1-1.46-1.8c.1-2.2,1.34-4.53,3.69-7s4.44-3.67,6.32-3.61c2.76.07,4.87,2.22,6.4,6.44s2.8,11.46,3.87,21.7c.1,1.06.16,1.6.26,2.66a115.47,115.47,0,0,0,12.73-25.64c2.22-2,3.33-3,5.52-5q.67,5.86,1.27,9.06c.51,2.77.77,4.16,1.29,6.93.37,1.94.56,2.91.94,4.85,1,4.42,1.44,6.64,2.43,11.06l1.14-1.73c7.3-11.17,10.57-18.39,10.43-21.49-.08-1.68-1.12-3.06-3.09-4.17,2.2-2.07,3.3-3.12,5.46-5.21,2.38,1.06,3.64,2.57,3.75,4.53.14,2.38-1.42,6.41-4.82,12.05-1.09,1.82-1.64,2.72-2.75,4.53-1.35,2.34-2,3.5-3.42,5.84a64.48,64.48,0,0,0-5.47,11.09c-2.33,2.16-3.5,3.23-5.87,5.36a164.63,164.63,0,0,0-2.73-16.42l-.9-4.07c-.9-4.06-1.34-6.08-2.21-10.14L251.83,479a169.47,169.47,0,0,0-10.55,20.81C238.2,502.21,236.64,503.39,233.5,505.75Z"/>
    <path class="cls-1" d="M316.1,483.84a53.61,53.61,0,0,1-10.88,14.39c-4.18,3.82-8,5.84-11.33,6.09-4.58.33-7.07-2.74-7.46-9.13-.55-8.79,2.26-16.58,8.1-23.5s12.88-10.78,21.39-11.75a28.09,28.09,0,0,1,8.42.11c-.09.54-.14.87-.16,1-.11.94-.16,1.41-.27,2.35-.18,1.63-.27,2.57-.27,2.83-.25,7.77-.4,11.65-.73,19.42,0,1.13-.06,1.69-.11,2.81a47.35,47.35,0,0,0,0,5.55c.15,1.24.64,1.81,1.46,1.71,2.76-.33,5.27-3.38,7.4-9.14.94.35,1.44.74,1.5,1.2.14,1-1,3.23-3.43,6.64-3.32,4.64-6.7,7.14-10,7.52-2.44.27-3.8-1-4.11-3.83a26,26,0,0,1,0-3.63c.05-1.4.07-2.1.12-3.51s.14-2.32.23-3.87C316,485.79,316,485.14,316.1,483.84Zm.81-17.42a19.59,19.59,0,0,0-8.93-1.26c-4.4.44-7.87,3.22-10.49,8.4s-3.72,11.41-3.18,18.71q.42,5.63,4.24,5.33c2.95-.24,6.36-2.51,10.11-6.83a31.44,31.44,0,0,0,8-19.6C316.78,469.27,316.82,468.32,316.91,466.42Z"/>
    <path class="cls-1" d="M351.8,472.75c2.87-8.25,8.05-19.67,17.18-21.83a12.82,12.82,0,0,1,5.41,0c-2,3.17-3.08,4.76-5.19,7.91a8.94,8.94,0,0,0-4,0c-3.24.64-6.2,3.68-9,9.14a32.26,32.26,0,0,0-3.92,16.13c.18,4.27.26,6.41.42,10.68-2.81,1.35-4.22,2-7.05,3.33l0-1.31c0-1.14-.05-1.71-.08-2.85s0-1.71,0-2.85c-.23-8.34-.37-12.51-.67-20.84,0-.91,0-1.36-.06-2.27a33.56,33.56,0,0,0-.33-4.18c-.28-1.74-.95-2.53-2-2.36-2.51.39-4.62,3.22-6.42,8.49-.87-.43-1.33-.94-1.38-1.52-.15-1.76,1.29-4.32,4.25-7.72s5.38-5.26,7.34-5.58q4-.66,4.78,4.12a29.29,29.29,0,0,1,.3,3.17c.08,1.22.11,1.83.19,3.06.07,1.46.11,2.2.18,3.67S351.73,471.31,351.8,472.75Z"/>
    <path class="cls-1" d="M389,452.81c.88,7.69,1.31,11.54,2.13,19.24a69.39,69.39,0,0,0,1.1,7.59c.75,3.19,2.37,4.5,4.87,3.9,2.7-.64,5-3.25,6.92-7.79a2.34,2.34,0,0,1,1.08,1.25c.4,1.57-.7,3.86-3.38,6.85s-5.2,4.74-7.53,5.29c-4.66,1.08-7.57-1-8.71-6.14a83.66,83.66,0,0,1-1.21-9.39c-.75-7.7-1.13-11.56-1.93-19.25-3.91.88-5.87,1.31-9.79,2.13,1.76-2.43,2.63-3.65,4.35-6.09l4.92-1.09c-.31-3.18-.47-4.76-.79-7.93,2.5-1.45,3.74-2.18,6.21-3.65.5,4,.74,6,1.23,10,7.82-1.87,11.71-2.87,19.48-5-1.61,2.54-2.43,3.8-4.08,6.32C397.9,450.65,394.92,451.4,389,452.81Z"/>
    <path class="cls-1" d="M413.94,481.78c2.19-2.61,3.28-3.93,5.43-6.56a13.77,13.77,0,0,0,10.49.74c4.66-1.37,6.39-4,5.21-7.87-.65-2.14-3.69-4.45-9-7l-3.42-1.67c-5-2.5-7.77-4.92-8.4-7.18-.91-3.24-.11-6.39,2.32-9.47a20.33,20.33,0,0,1,10.3-6.67,32,32,0,0,1,8.34-1.28c-1.58,2.55-2.38,3.82-4,6.35a14.35,14.35,0,0,0-8.46,0c-3.33,1-4.63,2.74-3.89,5.27.53,1.81,3.15,3.93,8,6.3l3.73,1.86c5.53,2.67,8.74,5.16,9.51,7.59,1.11,3.48.17,7.17-2.9,11a24.72,24.72,0,0,1-23.23,8.59Z"/>
  </g>
</svg>
