<svg id="Layer_1" data-name="Layer 1" xmlns="http://www.w3.org/2000/svg" viewBox="0 0 734 559">
  <defs>
    <style>
      .cls-1 {
        fill: #36100c;
      }

      .cls-2 {
        fill: #dbb745;
      }
    </style>
  </defs>
  <path class="cls-1" d="M382.5,21.14c-6-5-49,33-31,132-16,12-75,49-65,98,1.72,10.32,1,56-8,74-1.25,2.51,36,19,97,15,3,1,.34,4.79-1,5-71,11-105.9-13.49-110-14-1.46-.18,9.77-36.46,8-37-28-10-131,15-123,46,61,104,467,55,461,0-7-36-110-45-129-47-10.44,2.95-20,13-21,10,19-35-18.07-84.53-16-117,8-41-27-101-46-118S379.5,53.14,382.5,21.14Z"/>
  <polygon class="cls-2" points="341.34 199.67 333.72 196.74 326.99 201.36 327.42 193.21 320.94 188.23 328.83 186.12 331.56 178.43 336.01 185.28 344.17 185.5 339.03 191.84 341.34 199.67"/>
  <polygon class="cls-2" points="406.49 211.94 390.11 204.83 374.96 214.3 376.65 196.52 362.96 185.04 380.4 181.16 387.09 164.59 396.17 179.98 413.99 181.22 402.17 194.61 406.49 211.94"/>
  <polygon class="cls-2" points="407.49 250.94 400.01 245.52 391.31 248.61 394.15 239.82 388.52 232.5 397.75 232.49 402.98 224.87 405.85 233.65 414.71 236.27 407.24 241.71 407.49 250.94"/>
  <path class="cls-2" d="M298.27,225.68c35.3,23.53,56.56,37,41,95,6,2.05,35.63-41.27,19.73-70.3C349.58,233.09,310.7,220.54,298.27,225.68Z"/>
  <path class="cls-2" d="M272.5,294.14c-2,4-12.83,18.44-10,35,11,31,72,29,95,25,32-3.64,117-51.64,123-60.64,0-1-15.09-1.13-16-1-41,19-84,38-98,41-25,5-77,5-83-11.36,0-6.64,2-22.33,2-22.64C285.5,297.5,281.5,296.5,272.5,294.14Z"/>
  <g>
    <path d="M115.64,401.7c-3.2,6.39-5.28,10.71-6.19,13-1.61,4-3.21,7.91-4.83,11.87q13.27,3.6,26.6,6.85l.58-1.56q9.42-25.15,19.16-32.71c8-6.2,15.59-8.51,23.07-6.94a21.86,21.86,0,0,1,7.53,3.05q-4,2.58-8.14,5.12a14.36,14.36,0,0,0-7.12-4.19c-5.17-1.12-9.31.57-12.48,5.1s-7.81,15.37-14,32.49c-.72,2-1.43,3.94-2.15,5.9A178.06,178.06,0,0,0,132,457.51q-.9,3.8,2.68,4.64a15.08,15.08,0,0,0,7-.54,5.49,5.49,0,0,1-.06,1.16c-.2.89-1.25,1.5-3.15,1.82l-3.13.55q-7.93,1.32-15.93,2.51c1.36-5.5,4.46-14.64,9.23-27.46l.58-1.56q-13.38-3.27-26.68-6.9l-1.59,3.9-2,4.75q-2.53,6.06-5.46,8.25c-1.95,1.46-5.22,2.51-9.81,3.11q5.64,2,11.31,3.87l-7.28,3.52Q77.32,455.67,66.9,452c2.63-1.19,5.25-2.38,7.86-3.59l5.15,2.08a12.55,12.55,0,0,0,6.9-4.11q2.41-3,6.06-11.86,6.19-14.94,12.3-29.92l-1.44-.4c-12.87-3.61-20.49-1.57-22.93,6.5a15.61,15.61,0,0,0-.07,8.27q-4.86,2.28-9.78,4.52a23.81,23.81,0,0,1,15.47-22.61c7.3-2.81,15.77-2.83,25.57-.17Z"/>
    <path d="M157.22,476.26c-7.45-1.57-10.19-6.86-8.22-15.75,1.58-7.18,6-13.44,13-18.92s13.48-7.63,19.49-6.47c7.23,1.4,10,6.52,8.42,15.5-1.33,7.25-5.44,13.72-12.5,19.29S163.58,477.59,157.22,476.26Zm7-3.8c3.79.77,7.36-.53,10.64-3.88s5.46-7.91,6.55-13.65c1.77-9.39-.44-14.65-6.62-15.88-3.63-.73-7.07.57-10.36,3.9s-5.55,7.83-6.76,13.52C155.7,465.8,157.88,471.16,164.25,472.46Z"/>
    <path d="M237.26,446.14l-.42,1c-.29.78-.58,1.56-.86,2.33-.66,1.71-1,2.64-1.08,2.82q-2.11,8.19-4.27,16.37-1.08,4.11-3.1,14.53-2.55,13-5.54,19.06a26.57,26.57,0,0,1-9.05,10.17c-9.27,6.37-18.66,8.74-27.91,7.12a16.07,16.07,0,0,1-10.4-6,12.92,12.92,0,0,1-2.54-10.74c1.54-8.08,8.62-14.95,20.92-20.93q-3-3.11-1.93-9.39a34.32,34.32,0,0,1,13.83-22.09c7.54-5.67,15.55-7.84,24.21-6.59C232.8,444.32,235.51,445.09,237.26,446.14Zm-13.9,22.39c-10.68,11.18-19.9,16.09-27.17,14.84-.3-.05-.83-.17-1.58-.36-9,5.71-14.06,11.23-15.07,16.73a12,12,0,0,0,2.8,10.27A17,17,0,0,0,193,515.79c6.94,1.16,12.7-.69,17.21-5.5q5.16-5.57,10.23-28.75Q222.3,472.78,223.36,468.53Zm4.83-17.88A15.87,15.87,0,0,0,219.8,447c-4.4-.68-8.51,1.33-12.43,6s-6.53,10.8-7.82,18.37q-1,5.88,2.82,6.53c2.92.48,6.82-1,11.64-4.46,6.69-4.81,10.93-10.82,12.82-17.93C227.29,453.92,227.74,452.29,228.19,450.65Z"/>
    <path d="M248.7,491.15a120.8,120.8,0,0,0,.79-20.27q-.23-4.92-.43-9.84-.34-8.42-3.6-9.05c-2.42-.49-4.42,1.55-6,6.16a1.81,1.81,0,0,1-1.31-2c.31-2.31,1.8-4.64,4.45-7s4.92-3.44,6.84-3.2c2.82.35,4.77,2.82,5.88,7.42s1.63,12.33,1.59,23.19c0,.94,0,1.88,0,2.82a140.91,140.91,0,0,0,15.78-25.54q3.14-2.31,6.25-4.64,0,6.22.19,9.66l.48,7.42.36,5.19q.52,6,1.09,11.9l1.36-1.67c8.69-10.84,13-18,13.26-21.23.14-1.77-.73-3.35-2.6-4.76l6.26-4.76q3.42,2.15,3.2,5.25c-.18,2.51-2.31,6.51-6.48,12-1.12,1.46-2.24,2.93-3.37,4.38q-2.08,2.85-4.2,5.69a68,68,0,0,0-6.87,11q-3.24,2.48-6.52,4.93a173.92,173.92,0,0,0-.77-17.55l-.42-4.38q-.54-5.44-1.05-10.9c-.89,1.24-1.79,2.47-2.68,3.7a167,167,0,0,0-13,20.71Q252.94,488.44,248.7,491.15Z"/>
    <path d="M334.26,478.69a57.15,57.15,0,0,1-13,13.39c-4.72,3.39-8.78,5-12.14,4.75q-6.89-.45-6.18-10.58a34.28,34.28,0,0,1,11.41-23.47c6.9-6.41,14.64-9.41,23.44-9.08a27.58,27.58,0,0,1,8.52,1.49c-.18.54-.29.87-.32,1l-.66,2.41c-.44,1.66-.68,2.64-.72,2.91q-1.87,10.08-3.81,20.15c-.18,1-.37,1.94-.55,2.92a49,49,0,0,0-.85,5.79c-.05,1.32.35,2,1.18,2,2.79.09,5.75-2.68,8.81-8.33.88.52,1.31,1,1.3,1.51,0,1.07-1.51,3.19-4.47,6.35-4,4.29-7.77,6.37-11.13,6.24q-3.69-.15-3.49-4.65a28.87,28.87,0,0,1,.51-3.79l.66-3.65.81-4Zm3.51-18.05a19.35,19.35,0,0,0-8.85-2.72c-4.53-.21-8.46,2.2-11.86,7.24s-5.36,11.4-5.84,19.11c-.25,4,.91,6,3.48,6.18,3,.18,6.69-1.7,11.08-5.65a34.06,34.06,0,0,0,11-19.25C337.13,463.91,337.45,462.28,337.77,460.64Z"/>
    <path d="M371.78,473.16c7.35-12.84,14.28-19.32,21.2-19.43a13.59,13.59,0,0,1,5.44,1.09c-2.23,2.41-4.46,4.8-6.72,7.19a8.59,8.59,0,0,0-4-.78c-3.37,0-6.9,2.64-10.67,7.79a34.17,34.17,0,0,0-6.74,16.07q-.72,5.6-1.43,11.19l-7.52,2.21c.06-.46.12-.92.17-1.37.13-1,.27-2,.4-3s.29-2,.44-3q1.45-10.91,2.87-21.81c.11-.8.22-1.59.32-2.39a35.69,35.69,0,0,0,.39-4.4c0-1.87-.52-2.8-1.62-2.82-2.6,0-5.21,2.55-7.89,7.73-.81-.6-1.19-1.2-1.14-1.82.14-1.86,2-4.29,5.57-7.31s6.34-4.53,8.38-4.52q4.11,0,4.1,5.17a32.48,32.48,0,0,1-.26,3.35c-.12,1.07-.24,2.14-.35,3.21-.16,1.28-.31,2.57-.47,3.85S371.94,471.91,371.78,473.16Z"/>
    <path d="M412.64,459.76q-.83,10.17-1.7,20.35a79.17,79.17,0,0,0-.39,8.09q.17,5.19,4,5.06c2.76-.1,5.56-2.29,8.33-6.57a2.54,2.54,0,0,1,.81,1.52c.08,1.71-1.47,3.84-4.68,6.35s-6,3.81-8.4,3.88c-4.78.15-7.23-2.58-7.37-8.15a92.89,92.89,0,0,1,.6-10q.93-10.17,1.81-20.34c-3.4.1-6.8.17-10.21.23,1.86-1.8,3.7-3.62,5.54-5.43l5.15-.14.78-8.38c2.33-.82,4.66-1.64,7-2.48q-.39,5.33-.79,10.64,10.25-.36,20.5-.92-2.69,2.81-5.4,5.61Q420.43,459.49,412.64,459.76Z"/>
    <path d="M431.42,495.11q3.34-2.78,6.66-5.56a13.37,13.37,0,0,0,10.07,3.19c4.83-.32,7.09-2.63,6.78-6.87-.18-2.35-2.62-5.46-7.27-9.38l-3-2.51c-4.38-3.74-6.61-6.86-6.75-9.34-.21-3.54,1.25-6.61,4.34-9.23A19.83,19.83,0,0,1,454,451a30.29,30.29,0,0,1,8.55.7q-2.68,2.77-5.4,5.55a14,14,0,0,0-8.38-2c-3.52.25-5.19,1.74-5,4.52.13,2,2.27,4.78,6.5,8.35q1.62,1.41,3.26,2.8c4.84,4.07,7.41,7.41,7.63,10.1.3,3.84-1.43,7.4-5.26,10.65a23.75,23.75,0,0,1-24.43,3.48Z"/>
    <path d="M514,485.38q-.15-19.2-.46-38.41a85.69,85.69,0,0,1-7.17,5.79q-2.37,1.74-4.77,3.46c-.08.07-.45.33-1.08.78,0-1.48,0-3,0-4.44a86.1,86.1,0,0,0,19.71-13.73q.57,22.79.89,45.61,6.24-.85,12.47-1.77l-4.33,4.25q-14.41,2.06-28.89,3.74l4.54-4.14C507.9,486.15,510.92,485.77,514,485.38Z"/>
    <path d="M580.52,457.1a27.23,27.23,0,0,1-7.71,11.3,23.62,23.62,0,0,1-11.67,5.85,13,13,0,0,1-10.3-2.15,13.43,13.43,0,0,1-5.34-9.17c-.94-5.74.66-11.29,4.68-16.69s9-8.63,14.9-9.74a17.57,17.57,0,0,1,14.3,3.19c4.2,3.12,6.94,7.61,8.15,13.52,2.11,10.28-.06,20.41-6.83,30.3S565.13,499.28,554.55,501a44.53,44.53,0,0,1-12.07.29q2.89-3.4,5.77-6.85a24.76,24.76,0,0,0,13,1.24,21.11,21.11,0,0,0,15.08-10.27,36.88,36.88,0,0,0,4.44-13,38.19,38.19,0,0,0,.13-13.8C580.76,458.11,580.64,457.61,580.52,457.1Zm-1.46-4.34c-4-9.23-9.92-13.07-17.83-11.63a12.72,12.72,0,0,0-10.33,14.81,15.21,15.21,0,0,0,5.34,9.73,11.65,11.65,0,0,0,9.84,2.48C573.59,466.78,577.94,461.61,579.06,452.76Z"/>
    <path d="M636.82,444.38a27.28,27.28,0,0,1-7.12,11.72,23.83,23.83,0,0,1-11.36,6.49A13.13,13.13,0,0,1,607.91,461a13.48,13.48,0,0,1-5.85-8.86c-1.24-5.68.05-11.32,3.78-16.93s8.5-9.11,14.4-10.55a17.6,17.6,0,0,1,14.48,2.39c4.39,2.88,7.37,7.22,8.9,13.05,2.67,10.14,1,20.38-5.19,30.63s-14.74,16.62-25.24,18.95a44.44,44.44,0,0,1-12.06,1q2.72-3.57,5.4-7.16a24.88,24.88,0,0,0,13.05.52,21.18,21.18,0,0,0,14.54-11.09,36.85,36.85,0,0,0,3.75-13.25,38.4,38.4,0,0,0-.62-13.79C637.1,445.38,637,444.88,636.82,444.38Zm-1.71-4.25c-4.52-9-10.64-12.5-18.48-10.62a12.38,12.38,0,0,0-8,5.65,12.51,12.51,0,0,0-1.59,9.71,15.22,15.22,0,0,0,5.88,9.42,11.72,11.72,0,0,0,10,1.93C630.4,454.44,634.48,449,635.11,440.13Z"/>
    <path d="M672.21,452.62q-3-19-6.21-37.91a88,88,0,0,1-6.27,6.82l-4.23,4.14c-.08.09-.4.4-1,.94-.21-1.47-.43-2.93-.65-4.39a87.16,87.16,0,0,0,17.58-16.6q4,22.47,7.71,45,6.09-1.79,12.16-3.66l-3.68,4.87q-14.05,4.24-28.21,8.11l3.89-4.78C666.3,454.3,669.25,453.47,672.21,452.62Z"/>
  </g>
</svg>
