<svg id="Layer_1" data-name="Layer 1" xmlns="http://www.w3.org/2000/svg" viewBox="0 0 195 210">
  <defs>
    <style>
      .cls-1 {
        fill: #1f1f1e;
      }

      .cls-2 {
        fill: #d4a721;
      }

      .cls-3 {
        fill: #dbb745;
      }
    </style>
  </defs>
  <path class="cls-1" d="M11.5,34.51c-1,3,10,28,12,30s8-6,11-7-33,75-31,76,22,36,25,37,9-6,9-6,38,27,53,29c1,4,7,15,9,15s12-17,9-16c17-3,52-29,51-31,2,1,4,4,9,5s22-37,23-38-38-76-37-74,7,5,11,7,13-30,12-32-22-27-28-28-52,28-54,28c-3,0-49-28-54-26C37.79,5,12.5,31.51,11.5,34.51Z"/>
  <path class="cls-2" d="M17.94,38.55c-.93,2.8,5.7,19.1,7.56,21s11.14-7.71,14-7c4,1-30.87,77.26-29,78.19s18.22,31.88,21,32.81,8-5,8-5,38,26.18,52,28c.93,3.72,6.52,14,8.38,14s10.92-17.11,9.65-16c14.27-3.11,48.93-28.14,48-30,1.86.93,5.35,4.07,10,5s16.07-29.07,17-30-37-76-36-80c.54-2.17,12.28,6.14,16,8,2,2,8.88-21.75,7.95-23.61S154.08,9.44,148.5,8.51s-50.14,28-52,28c-2.79,0-48.35-27.86-53-26C40,11.89,18.87,35.76,17.94,38.55Z"/>
  <path class="cls-1" d="M19.5,39.51c-1.32,2.63,5.14,16.14,7,18s13-9,16-7c3.43,2.29-30.86,79.07-29,80s16.21,29.07,19,30,7-4,7-4,39,26.14,53,28c.93,3.72,5.14,14,7,14s9-15,9-15c15.82-2.79,49.93-29.14,49-31,1.86.93,4.35,4.07,9,5s16.1-28.27,15-29c-3-2-37.84-77.31-36-81,1-2,14.28,5.14,18,7,2,2,7.93-17.14,7-19s-16.42-23.07-22-24-50.14,28-52,28c-2.79,0-48.35-27.86-53-26C40,14.89,20.5,37.51,19.5,39.51Z"/>
  <path class="cls-3" d="M135.77,83.47a59.86,59.86,0,0,0-9.31,1.72,2.52,2.52,0,0,1-3.13-2.45V49.14a2.54,2.54,0,0,1,.67-1.71,7.7,7.7,0,0,1,3-2.22c4.62-1.85,1.34-3.7.81-3.68l-25.23.65-.37,0c-3.49-.45-3.78,3.06-.15,4,.37,0,1.14.7,2.13,1.8a2.53,2.53,0,0,1,.64,1.68V92l-.92.31c-1.88.63-6.39,2-11.54,3.52a2.51,2.51,0,0,1-3.24-2.41V52.26a2.49,2.49,0,0,1,1.7-2.39l.14,0c4.62-1.85,1.92-4.33,1.36-4.32l-26.6.69-.38,0c-2.36-.32-2.84,1-2.44,2.2a2.43,2.43,0,0,0,1.76,1.51,8.39,8.39,0,0,1,3.39,2.37,2.56,2.56,0,0,1,.74,1.79v44a2.52,2.52,0,0,1-3.62,2.27c-3.61-1.76-8.22-4.13-9.31-5.22s4.11-3.18,6.6-4.26a2.42,2.42,0,0,0,1.36-1.46c.4-1.39-1.65-.75-2.42-.75s-13.86.92-12.93,2.77c1.5,12,14,17.52,18.65,19.14a2.5,2.5,0,0,1,1.67,2.37v24.7a2.58,2.58,0,0,1-.45,1.44c-2.81,4-5.31,7.21-6,6.86-2.77-.93-1.9,2.82-1.25,2.85l30.82,1.6a2.9,2.9,0,0,1,.41.06c4.18.94,3.25-1.76,1.44-2.66-.56,0-2.2-2.2-4.21-5.26a2.51,2.51,0,0,1-.41-1.38V112A2.48,2.48,0,0,1,91,109.62a94.89,94.89,0,0,0,10.33-3.92,2.51,2.51,0,0,1,3.51,2.31v37a2.48,2.48,0,0,1-.45,1.44c-2.81,4-5.31,7.21-6,6.86-2.77-.92-1.9,2.82-1.25,2.85l30.82,1.6a2.7,2.7,0,0,1,.41.06c4.18.94,3.25-1.75,1.44-2.66-.73,0-3.27-3.69-6.09-8.18a2.51,2.51,0,0,1-.38-1.34V97a2.52,2.52,0,0,1,1.4-2.26c4.94-2.47,9.39-4.81,12.51-6.62A2.52,2.52,0,0,0,135.77,83.47Z"/>
</svg>
