<svg id="Layer_1" data-name="Layer 1" xmlns="http://www.w3.org/2000/svg" viewBox="0 0 125 120">
  <defs>
    <style>
      .cls-1 {
        fill: #1f1f1e;
      }
    </style>
  </defs>
  <g>
    <g>
      <path class="cls-1" d="M80.77,3.79c-4,3-33.29,29.26-31.27,42.37,7.06,38.34,34.3,22.2,34.3,22.2s8.07-2-2-8.07-12.1-22.2-12.1-22.2,1-15.13,2-13.11S90.49,42.51,109,32c23.2-13.12,12.11-23.2,10.09-24.21S101,1.77,111,18.92C98.93,27,84.81.76,80.77,3.79Z"/>
      <path class="cls-1" d="M82.8,68.88s-9.09,2.5,9.07-3.55S104,96.6,97.92,96.6s3,8.07,3,8.07,20.18-9.08,21.19-36.31c0-21.19-12.11-20.18-16.15-20.18-7.06,0-15.13,5-24.21,12.11S82.8,68.88,82.8,68.88Z"/>
      <path class="cls-1" d="M97.92,96.6C87.84,81.47,83.8,78.44,77.75,76.43c-17.15-3-21.19,8.07-27.24,13.11-5,6-3,13.12-1,15.13,0,0,5,8.07,12.11,4,2-2,3-10.09-5-10.09-1-6.05,1-10.09,8.07-9.08,6.92,1.73,21.19,28.25,24.21,28.25s13.64-13.44,13.38-13.78S102,102.66,97.92,96.6Z"/>
    </g>
    <path class="cls-1" d="M36.15,114.79c-2.3-1.64-3-3.05-5.79-7.54a2.54,2.54,0,0,1-.38-1.34V9.42a2.52,2.52,0,0,1,.67-1.71,7.7,7.7,0,0,1,3-2.22c4.62-1.85,1.34-3.7.81-3.69L9.25,2.46a2.31,2.31,0,0,1-.37,0C5.39,2,5.1,5.5,8.73,6.41c.37,0,1.14.69,2.13,1.8a2.53,2.53,0,0,1,.64,1.68v95.39a2.52,2.52,0,0,1-.45,1.43c-2.81,4.05-5.31,7.22-6,6.87-4.88.21-3.53,4.17-2.88,4.21,0,0,32.73.27,32.86.3C38.15,118.79,41.15,115.79,36.15,114.79Z"/>
  </g>
</svg>
