<svg id="Layer_1" data-name="Layer 1" xmlns="http://www.w3.org/2000/svg" viewBox="0 0 18 24">
  <defs>
    <style>
      .cls-1 {
        fill: #999;
      }

      .cls-2 {
        fill: #4d4d4d;
      }

      .cls-3, .cls-4 {
        fill: #ccc;
      }

      .cls-3 {
        opacity: 0.58;
      }

      .cls-4 {
        opacity: 0.57;
      }
    </style>
  </defs>
  <path class="cls-1" d="M9.2,0C9.08,3.21-4,13.87,3.77,20.51c6.79,5.79,11.31-.34,11.31-.34C22.21,13.75,9,2.64,9.2,0Z"/>
  <path class="cls-2" d="M9.2,0A5.39,5.39,0,0,1,8.14,2.28,4,4,0,0,0,9.2.34C9,3,17,16.55,9.93,23a7.59,7.59,0,0,0,5.15-2.82C22.21,13.75,9,2.64,9.2,0Z"/>
  <path class="cls-3" d="M6.48,8.37c-.11.34-5.2,4.81-1.58,9.85.45.46,1.92-.11,1.58-.57C4.22,15.13,6.59,8,6.48,8.37Z"/>
  <path class="cls-4" d="M5.83,19l.73-.6a.21.21,0,0,1,.32.07l.35.65a.21.21,0,0,1-.07.29l-.44.27a.41.41,0,0,1-.48,0l-.4-.31A.23.23,0,0,1,5.83,19Z"/>
</svg>
