<svg id="Layer_1" data-name="Layer 1" xmlns="http://www.w3.org/2000/svg" viewBox="0 0 45 65">
  <defs>
    <style>
      .cls-1 {
        fill: #1f1f1e;
      }
    </style>
  </defs>
  <path class="cls-1" d="M15.6,50.69c-.67-2.65.15-15.37.19-16V18.27c0-3.08,4.62-7.7,5.65-8.21C23,8.52,27.6,12.63,27.6,14.68c-.52,7.18-9.75,13.85-10.78,18a8,8,0,0,0,0,3.56.86.86,0,0,0,1.39.51h0l7.36-5.6h0S40.43,16.22,39.4,12.63,26.06,2.36,25,2.36a5.59,5.59,0,0,0-4.59,3,.61.61,0,0,1-.07.1c-7.64,9.15-2.53-4.15-4.58-4.67C15.28.31,2.45,11.09,2.45,11.6s4.11.51,4.11,1c.49,1,.51,39.4.51,42.41a.81.81,0,0,1-.08.34c-.54,1.19-3.73,8.44-.43,7,2.54-1.09,12.83-8.73,12.83-9.24s-2.18-1.38-3.32-1.92A.88.88,0,0,1,15.6,50.69Z"/>
</svg>
