<svg id="Layer_1" data-name="Layer 1" xmlns="http://www.w3.org/2000/svg" viewBox="0 0 18 25">
  <defs>
    <style>
      .cls-1 {
        fill: #d93e30;
      }

      .cls-2 {
        fill: #bf3326;
      }

      .cls-3, .cls-4 {
        fill: #f2c5bb;
      }

      .cls-3 {
        opacity: 0.58;
      }

      .cls-4 {
        opacity: 0.57;
      }
    </style>
  </defs>
  <g>
    <g>
      <path class="cls-1" d="M8.46.37C8.34,3.72-4.78,14.84,3,21.77c6.79,6,11.31-.36,11.31-.36C21.47,14.72,8.23,3.12,8.46.37Z"/>
      <path class="cls-2" d="M8.46.37A5.69,5.69,0,0,1,7.4,2.75a4.3,4.3,0,0,0,1.06-2c-.23,2.74,7.76,16.91.73,23.62a7.49,7.49,0,0,0,5.15-2.94C21.47,14.72,8.23,3.12,8.46.37Z"/>
    </g>
    <path class="cls-3" d="M5.74,9.1c-.11.36-5.2,5-1.58,10.28.45.48,1.92-.12,1.58-.6C3.48,16.15,5.86,8.74,5.74,9.1Z"/>
    <path class="cls-4" d="M5.09,20.17l.73-.63a.21.21,0,0,1,.33.07l.35.67a.25.25,0,0,1-.08.31L6,20.88a.41.41,0,0,1-.48,0l-.4-.32A.25.25,0,0,1,5.09,20.17Z"/>
  </g>
</svg>
