<svg id="Layer_1" data-name="Layer 1" xmlns="http://www.w3.org/2000/svg" viewBox="0 0 195 210">
  <defs>
    <style>
      .cls-1 {
        fill: #0c539e;
      }

      .cls-2 {
        fill: #cc9c1f;
      }

      .cls-3 {
        fill: #d5a226;
      }
    </style>
  </defs>
  <path class="cls-1" d="M11.5,34.51c-1,3,10,28,12,30s8-6,11-7-33,75-31,76,22,36,25,37,9-6,9-6,38,27,53,29c1,4,7,15,9,15s12-17,9-16c17-3,52-29,51-31,2,1,4,4,9,5s22-37,23-38-38-76-37-74,7,5,11,7,13-30,12-32-22-27-28-28-52,28-54,28c-3,0-49-28-54-26C37.79,5,12.5,31.51,11.5,34.51Z"/>
  <path class="cls-2" d="M17.94,38.55c-.93,2.8,5.7,19.1,7.56,21s11.14-7.71,14-7c4,1-30.87,77.26-29,78.19s18.22,31.88,21,32.81,8-5,8-5,38,26.18,52,28c.93,3.72,6.52,14,8.38,14s10.92-17.11,9.65-16c14.27-3.11,48.93-28.14,48-30,1.86.93,5.35,4.07,10,5s16.07-29.07,17-30-37-76-36-80c.54-2.17,12.28,6.14,16,8,2,2,8.88-21.75,7.95-23.61S154.08,9.44,148.5,8.51s-50.14,28-52,28c-2.79,0-48.35-27.86-53-26C40,11.89,18.87,35.76,17.94,38.55Z"/>
  <path class="cls-1" d="M19.5,38.51c-1.32,2.63,5.14,16.14,7,18s13-9,16-7c3.43,2.29-30.86,79.07-29,80s16.21,29.07,19,30,7-4,7-4,39,26.14,53,28c.93,3.72,5.14,14,7,14s9-15,9-15c15.82-2.79,49.93-29.14,49-31,1.86.93,4.35,4.07,9,5s16.1-28.27,15-29c-3-2-37.84-77.31-36-81,1-2,14.28,5.14,18,7,2,2,7.93-17.14,7-19s-16.42-23.07-22-24-50.14,28-52,28c-2.79,0-48.35-27.86-53-26C40,13.89,20.5,36.51,19.5,38.51Z"/>
  <path class="cls-3" d="M84.5,43.51c-1-1-26,20-26,21s8,1,8,2c1,2,1,83,1,83s-8,17-1,14c5-2.12,25-17,25-18s-5-3-7-4c-2-2,0-32.08,0-32.08V77.51c0-6,9-15,11-16,3-3,12,5,12,9-1,14-19,27-21,35s3,17,13,31c21,22,41.28,24.7,36,20-18-16-21-53-23-55-1-1-9,1-9,1s29-29,27-36-26-20-28-20-6,1-9,6C78.5,70.51,88.5,44.51,84.5,43.51Z"/>
</svg>
