<svg id="Layer_1" data-name="Layer 1" xmlns="http://www.w3.org/2000/svg" viewBox="0 0 195 210">
  <defs>
    <style>
      .cls-1 {
        fill: #2d581d;
      }

      .cls-2 {
        fill: #bbbbb9;
      }

      .cls-3 {
        fill: #c8c7c5;
      }
    </style>
  </defs>
  <path class="cls-1" d="M11.5,35.51c-1,3,10,28,12,30s8-6,11-7-33,75-31,76,22,36,25,37,9-6,9-6,38,27,53,29c1,4,7,15,9,15s12-17,9-16c17-3,52-29,51-31,2,1,4,4,9,5s22-37,23-38-38-76-37-74,7,5,11,7,13-30,12-32-22-27-28-28-52,28-54,28c-3,0-49-28-54-26C37.79,6,12.5,32.51,11.5,35.51Z"/>
  <path class="cls-2" d="M17.94,39.55c-.93,2.8,5.7,19.1,7.56,21s11.14-7.71,14-7c4,1-30.87,77.26-29,78.19s18.22,31.88,21,32.81,8-5,8-5,38,26.18,52,28c.93,3.72,6.52,14,8.38,14s10.92-17.11,9.65-16c14.27-3.11,48.93-28.14,48-30,1.86.93,5.35,4.07,10,5s16.07-29.07,17-30-37-76-36-80c.54-2.17,12.28,6.14,16,8,2,2,8.88-21.75,7.95-23.61S154.08,10.44,148.5,9.51s-50.14,28-52,28c-2.79,0-48.35-27.86-53-26C40,12.89,18.87,36.76,17.94,39.55Z"/>
  <path class="cls-1" d="M19.5,39.51c-1.32,2.63,5.14,16.14,7,18s13-9,16-7c3.43,2.29-30.86,79.07-29,80s16.21,29.07,19,30,7-4,7-4,39,26.14,53,28c.93,3.72,5.14,14,7,14s9-15,9-15c15.82-2.79,49.93-29.14,49-31,1.86.93,4.35,4.07,9,5s16.1-28.27,15-29c-3-2-37.84-77.31-36-81,1-2,14.28,5.14,18,7,2,2,7.93-17.14,7-19s-16.42-23.07-22-24-50.14,28-52,28c-2.79,0-48.35-27.86-53-26C40,14.89,20.5,37.51,19.5,39.51Z"/>
  <g>
    <path class="cls-3" d="M92.5,53.51c-4,3-33,29-31,42,7,38,34,22,34,22s8-2-2-8-12-22-12-22,1-15,2-13,18.64,17.38,37,7c23-13,12-23,10-24s-18-6-8,11C110.5,76.51,96.5,50.51,92.5,53.51Z"/>
    <path class="cls-3" d="M94.51,118s-9,2.48,9-3.52,12,31,6,31,3,8,3,8,20-9,21-36c0-21-12-20-16-20-7,0-15,5-24,12S94.51,118,94.51,118Z"/>
    <path class="cls-3" d="M109.5,145.51c-10-15-14-18-20-20-17-3-21,8-27,13-5,6-3,13-1,15,0,0,5,8,12,4,2-2,3-10-5-10-1-6,1-10,8-9,6.86,1.72,21,28,24,28s13.52-13.32,13.26-13.66S113.5,151.51,109.5,145.51Z"/>
  </g>
</svg>
