<svg id="Layer_1" data-name="Layer 1" xmlns="http://www.w3.org/2000/svg" viewBox="0 0 30 30">
  <defs>
    <style>
      .cls-1, .cls-2 {
        fill: #36100c;
      }

      .cls-1 {
        opacity: 0.1;
      }
    </style>
  </defs>
  <g>
    <path class="cls-1" d="M28.9,26.54c-.19-.64-1.85-.71-2.36-.77a1.18,1.18,0,0,1-.41-.12L24.94,24.5a.68.68,0,0,0,.13-.52,2.68,2.68,0,0,0-1.66-1.47,5.71,5.71,0,0,1-.64-.12l-2.51-2.45a.75.75,0,0,0,.2-.58A2.43,2.43,0,0,0,19,18L18.22,18,14,13.87a.65.65,0,0,0,.18-.51,2,2,0,0,0-1.26-1.11l-.68-.1L1.13,1.31a.15.15,0,0,0-.23,0l-.11.19a.15.15,0,0,0,0,.17l10.87,11.2c0,.21.08.47.11.59a4.32,4.32,0,0,0,1,1.16c.08.06.26,0,.47-.12l4.16,4.29c.05.22.11.54.14.7a5.51,5.51,0,0,0,1.21,1.39c.09.07.3,0,.54-.14l.33.34,2.05,2.05c.06.32.14.81.17,1a6.18,6.18,0,0,0,1.35,1.54c.11.09.43,0,.76-.26l1.4,1.4a1.06,1.06,0,0,1,.13.32c.07.32.32,1.73.64,2S29.09,27.17,28.9,26.54Z"/>
    <path class="cls-2" d="M29.22,26.09c-.19-.64-1.85-.7-2.36-.77a1.2,1.2,0,0,1-.41-.11l-1.19-1.16a.72.72,0,0,0,.13-.52,2.66,2.66,0,0,0-1.66-1.46,5.49,5.49,0,0,1-.64-.13L20.58,19.5a.78.78,0,0,0,.2-.59,2.43,2.43,0,0,0-1.5-1.33l-.74-.07-4.2-4.09a.64.64,0,0,0,.18-.51,2,2,0,0,0-1.26-1.11c-.26,0-.5-.06-.68-.1L1.44.87a.14.14,0,0,0-.22,0l-.11.19a.15.15,0,0,0,0,.17L12,12.46c0,.21.08.47.11.6a4.48,4.48,0,0,0,1,1.16c.08.06.26,0,.46-.13l4.17,4.29c.05.22.11.54.14.7a5.35,5.35,0,0,0,1.21,1.39c.09.07.3,0,.54-.14l.33.34,2.05,2c.06.32.13.81.17,1a6.3,6.3,0,0,0,1.34,1.53c.12.09.43,0,.77-.26l1.4,1.41a.9.9,0,0,1,.13.32,5.68,5.68,0,0,0,.64,2C26.79,29,29.41,26.73,29.22,26.09Z"/>
  </g>
</svg>
