<svg id="Layer_1" data-name="Layer 1" xmlns="http://www.w3.org/2000/svg" viewBox="0 0 35 35">
  <defs>
    <style>
      .cls-1 {
        opacity: 0.1;
      }

      .cls-2 {
        fill: #36100c;
      }
    </style>
  </defs>
  <g class="cls-1">
    <path class="cls-2" d="M29.06,32.25l2.13-2.08c.16-.15.23-.32.16-.39L.78.66C.71.59.59.73.58.75l-.37.44a.23.23,0,0,0,.05.31L21,24.54l7.66,7.86C28.73,32.46,28.9,32.4,29.06,32.25Z"/>
    <path class="cls-2" d="M13.87,17.76a10.21,10.21,0,0,0,2.26,2.66c.54.45,3.53-1.81,3.22-2.91A4.59,4.59,0,0,0,16.53,15c-.87-.12-1.42-.13-1.86-.25S13.4,16.28,13.45,16,13.76,17.21,13.87,17.76Z"/>
    <path class="cls-2" d="M22.05,26.24c.12.66,2.06,2.65,2.71,3.18S29,27.25,28.6,25.94a5.41,5.41,0,0,0-3.36-3.06A13.39,13.39,0,0,1,23,22.32c-.53-.14-1.52,1.62-1.46,1.29A16.71,16.71,0,0,1,22.05,26.24Z"/>
    <path class="cls-2" d="M28.46,31.48c.08.43.4,2.34.83,2.69s4-2.63,3.76-3.5-2.49-1-3.18-1.08-.85-.44-1.2-.53-1.1,1.33-1.05,1.11S28.38,31,28.46,31.48Z"/>
  </g>
  <g>
    <path class="cls-2" d="M30.1,31.24l2.1-2.11c.16-.15.23-.33.16-.39L1.4,0C1.32,0,1.2.11,1.19.13L.83.58a.22.22,0,0,0,.05.3L22,23.63l7.76,7.76C29.77,31.46,30,31.39,30.1,31.24Z"/>
    <path class="cls-2" d="M14.71,17A10.3,10.3,0,0,0,17,19.59c.55.43,3.51-1.87,3.18-3a4.56,4.56,0,0,0-2.85-2.52c-.88-.11-1.42-.11-1.86-.22s-1.26,1.59-1.21,1.31S14.6,16.41,14.71,17Z"/>
    <path class="cls-2" d="M23,25.32c.13.66,2.1,2.62,2.75,3.15s4.19-2.23,3.8-3.54a5.46,5.46,0,0,0-3.41-3,13.22,13.22,0,0,1-2.22-.53c-.53-.13-1.51,1.65-1.44,1.31A18,18,0,0,1,23,25.32Z"/>
    <path class="cls-2" d="M29.49,30.47c.09.43.44,2.34.87,2.68s4-2.68,3.71-3.54-2.5-.95-3.19-1-.86-.43-1.21-.52-1.08,1.35-1,1.13S29.41,30,29.49,30.47Z"/>
  </g>
</svg>
